<mxfile host="app.diagrams.net" modified="2023-06-11T11:50:49.345Z" agent="Mozilla/5.0 (Windows NT 10.0; Win64; x64) AppleWebKit/537.36 (KHTML, like Gecko) Chrome/114.0.0.0 Safari/537.36" etag="94B8tot2Wd7BF1cZCowP" version="21.3.8" type="github">
  <diagram name="Page-1" id="Fw9cqJjb__tHlQrYpdmn">
    <mxGraphModel dx="1434" dy="764" grid="1" gridSize="10" guides="1" tooltips="1" connect="1" arrows="1" fold="1" page="1" pageScale="1" pageWidth="850" pageHeight="1100" math="0" shadow="0">
      <root>
        <mxCell id="0" />
        <mxCell id="1" parent="0" />
        <mxCell id="8VgfwEKivi2yDVHk0vp1-1" value="Complex Tour Requests" style="swimlane;html=1;childLayout=stackLayout;startSize=20;rounded=0;shadow=0;comic=0;labelBackgroundColor=none;strokeWidth=1;fontFamily=Verdana;fontSize=12;align=center;" vertex="1" parent="1">
          <mxGeometry x="40" y="70" width="1100" height="1560" as="geometry" />
        </mxCell>
        <mxCell id="8VgfwEKivi2yDVHk0vp1-2" value="Guest" style="swimlane;html=1;startSize=20;" vertex="1" parent="8VgfwEKivi2yDVHk0vp1-1">
          <mxGeometry y="20" width="360" height="1540" as="geometry" />
        </mxCell>
        <mxCell id="8VgfwEKivi2yDVHk0vp1-29" value="" style="ellipse;whiteSpace=wrap;html=1;rounded=0;shadow=0;comic=0;labelBackgroundColor=none;strokeWidth=1;fillColor=#000000;fontFamily=Verdana;fontSize=12;align=center;" vertex="1" parent="8VgfwEKivi2yDVHk0vp1-2">
          <mxGeometry x="90" y="40" width="40" height="40" as="geometry" />
        </mxCell>
        <mxCell id="8VgfwEKivi2yDVHk0vp1-28" style="edgeStyle=orthogonalEdgeStyle;rounded=0;html=1;labelBackgroundColor=none;startArrow=none;startFill=0;startSize=5;endArrow=classicThin;endFill=1;endSize=5;jettySize=auto;orthogonalLoop=1;strokeWidth=1;fontFamily=Verdana;fontSize=12" edge="1" parent="8VgfwEKivi2yDVHk0vp1-2" source="8VgfwEKivi2yDVHk0vp1-29">
          <mxGeometry relative="1" as="geometry">
            <mxPoint x="110" y="100" as="targetPoint" />
          </mxGeometry>
        </mxCell>
        <mxCell id="8VgfwEKivi2yDVHk0vp1-63" value="KREIRANJE REQUESTA" style="shape=note;whiteSpace=wrap;html=1;rounded=0;shadow=0;comic=0;labelBackgroundColor=none;strokeWidth=1;fontFamily=Verdana;fontSize=12;align=center;size=20;" vertex="1" parent="8VgfwEKivi2yDVHk0vp1-2">
          <mxGeometry x="25" y="110" width="195" height="190" as="geometry" />
        </mxCell>
        <mxCell id="8VgfwEKivi2yDVHk0vp1-122" value="PREGLED REQUESTOVA" style="shape=note;whiteSpace=wrap;html=1;rounded=0;shadow=0;comic=0;labelBackgroundColor=none;strokeWidth=1;fontFamily=Verdana;fontSize=12;align=center;size=20;" vertex="1" parent="8VgfwEKivi2yDVHk0vp1-2">
          <mxGeometry x="82.5" y="1160" width="195" height="190" as="geometry" />
        </mxCell>
        <mxCell id="8VgfwEKivi2yDVHk0vp1-188" value="Receive Notification" style="shape=dataStorage;whiteSpace=wrap;html=1;fixedSize=1;" vertex="1" parent="8VgfwEKivi2yDVHk0vp1-2">
          <mxGeometry x="110" y="960" width="160" height="50" as="geometry" />
        </mxCell>
        <mxCell id="8VgfwEKivi2yDVHk0vp1-11" value="System" style="swimlane;html=1;startSize=20;" vertex="1" parent="8VgfwEKivi2yDVHk0vp1-1">
          <mxGeometry x="360" y="20" width="340" height="1540" as="geometry" />
        </mxCell>
        <mxCell id="8VgfwEKivi2yDVHk0vp1-114" value="KREIRANJE REQUESTA" style="shape=note;whiteSpace=wrap;html=1;rounded=0;shadow=0;comic=0;labelBackgroundColor=none;strokeWidth=1;fontFamily=Verdana;fontSize=12;align=center;size=20;" vertex="1" parent="8VgfwEKivi2yDVHk0vp1-11">
          <mxGeometry x="16.5" y="100" width="195" height="190" as="geometry" />
        </mxCell>
        <mxCell id="8VgfwEKivi2yDVHk0vp1-175" style="edgeStyle=orthogonalEdgeStyle;rounded=0;orthogonalLoop=1;jettySize=auto;html=1;entryX=0.5;entryY=0;entryDx=0;entryDy=0;" edge="1" parent="8VgfwEKivi2yDVHk0vp1-11" source="8VgfwEKivi2yDVHk0vp1-142" target="8VgfwEKivi2yDVHk0vp1-174">
          <mxGeometry relative="1" as="geometry" />
        </mxCell>
        <mxCell id="8VgfwEKivi2yDVHk0vp1-177" value="no" style="edgeLabel;html=1;align=center;verticalAlign=middle;resizable=0;points=[];" vertex="1" connectable="0" parent="8VgfwEKivi2yDVHk0vp1-175">
          <mxGeometry x="0.1088" y="3" relative="1" as="geometry">
            <mxPoint x="-3" y="-5" as="offset" />
          </mxGeometry>
        </mxCell>
        <mxCell id="8VgfwEKivi2yDVHk0vp1-142" value="Already Accepted One Part" style="rhombus;whiteSpace=wrap;html=1;" vertex="1" parent="8VgfwEKivi2yDVHk0vp1-11">
          <mxGeometry x="90" y="430" width="90" height="100" as="geometry" />
        </mxCell>
        <mxCell id="8VgfwEKivi2yDVHk0vp1-159" value="Generate Possible Departure Times" style="rounded=1;whiteSpace=wrap;html=1;" vertex="1" parent="8VgfwEKivi2yDVHk0vp1-11">
          <mxGeometry x="75" y="730" width="120" height="60" as="geometry" />
        </mxCell>
        <mxCell id="8VgfwEKivi2yDVHk0vp1-176" style="edgeStyle=orthogonalEdgeStyle;rounded=0;orthogonalLoop=1;jettySize=auto;html=1;" edge="1" parent="8VgfwEKivi2yDVHk0vp1-11" source="8VgfwEKivi2yDVHk0vp1-174" target="8VgfwEKivi2yDVHk0vp1-159">
          <mxGeometry relative="1" as="geometry" />
        </mxCell>
        <mxCell id="8VgfwEKivi2yDVHk0vp1-178" value="no&lt;br&gt;" style="edgeLabel;html=1;align=center;verticalAlign=middle;resizable=0;points=[];" vertex="1" connectable="0" parent="8VgfwEKivi2yDVHk0vp1-176">
          <mxGeometry x="-0.0632" y="2" relative="1" as="geometry">
            <mxPoint as="offset" />
          </mxGeometry>
        </mxCell>
        <mxCell id="8VgfwEKivi2yDVHk0vp1-174" value="Is Busy" style="rhombus;whiteSpace=wrap;html=1;" vertex="1" parent="8VgfwEKivi2yDVHk0vp1-11">
          <mxGeometry x="90" y="570" width="90" height="80" as="geometry" />
        </mxCell>
        <mxCell id="8VgfwEKivi2yDVHk0vp1-192" style="edgeStyle=orthogonalEdgeStyle;rounded=0;orthogonalLoop=1;jettySize=auto;html=1;" edge="1" parent="8VgfwEKivi2yDVHk0vp1-11" source="8VgfwEKivi2yDVHk0vp1-186" target="8VgfwEKivi2yDVHk0vp1-187">
          <mxGeometry relative="1" as="geometry" />
        </mxCell>
        <mxCell id="8VgfwEKivi2yDVHk0vp1-186" value="Create Tour From Tour Request" style="rounded=1;whiteSpace=wrap;html=1;" vertex="1" parent="8VgfwEKivi2yDVHk0vp1-11">
          <mxGeometry x="75" y="850" width="120" height="60" as="geometry" />
        </mxCell>
        <mxCell id="8VgfwEKivi2yDVHk0vp1-187" value="Send Notification" style="shape=step;perimeter=stepPerimeter;whiteSpace=wrap;html=1;fixedSize=1;flipH=1;" vertex="1" parent="8VgfwEKivi2yDVHk0vp1-11">
          <mxGeometry x="65" y="960" width="140" height="50" as="geometry" />
        </mxCell>
        <mxCell id="8VgfwEKivi2yDVHk0vp1-27" value="Guide" style="swimlane;html=1;startSize=20;" vertex="1" parent="8VgfwEKivi2yDVHk0vp1-1">
          <mxGeometry x="700" y="20" width="400" height="1540" as="geometry" />
        </mxCell>
        <mxCell id="8VgfwEKivi2yDVHk0vp1-115" value="" style="ellipse;whiteSpace=wrap;html=1;rounded=0;shadow=0;comic=0;labelBackgroundColor=none;strokeWidth=1;fillColor=#000000;fontFamily=Verdana;fontSize=12;align=center;" vertex="1" parent="8VgfwEKivi2yDVHk0vp1-27">
          <mxGeometry x="160" y="40" width="40" height="40" as="geometry" />
        </mxCell>
        <mxCell id="8VgfwEKivi2yDVHk0vp1-140" value="View Complex Tour Requests" style="rounded=1;whiteSpace=wrap;html=1;" vertex="1" parent="8VgfwEKivi2yDVHk0vp1-27">
          <mxGeometry x="120" y="210" width="120" height="60" as="geometry" />
        </mxCell>
        <mxCell id="8VgfwEKivi2yDVHk0vp1-141" value="Select Part of Complex Tour Request" style="rounded=1;whiteSpace=wrap;html=1;" vertex="1" parent="8VgfwEKivi2yDVHk0vp1-27">
          <mxGeometry x="120" y="320" width="120" height="60" as="geometry" />
        </mxCell>
        <mxCell id="8VgfwEKivi2yDVHk0vp1-144" style="edgeStyle=orthogonalEdgeStyle;rounded=0;html=1;labelBackgroundColor=none;startArrow=none;startFill=0;startSize=5;endArrow=classicThin;endFill=1;endSize=5;jettySize=auto;orthogonalLoop=1;strokeWidth=1;fontFamily=Verdana;fontSize=12;exitX=0.5;exitY=1;exitDx=0;exitDy=0;" edge="1" parent="8VgfwEKivi2yDVHk0vp1-27" source="8VgfwEKivi2yDVHk0vp1-115" target="8VgfwEKivi2yDVHk0vp1-140">
          <mxGeometry relative="1" as="geometry">
            <mxPoint x="-530" y="90" as="sourcePoint" />
            <mxPoint x="-530" y="110" as="targetPoint" />
          </mxGeometry>
        </mxCell>
        <mxCell id="8VgfwEKivi2yDVHk0vp1-145" style="edgeStyle=orthogonalEdgeStyle;rounded=0;html=1;labelBackgroundColor=none;startArrow=none;startFill=0;startSize=5;endArrow=classicThin;endFill=1;endSize=5;jettySize=auto;orthogonalLoop=1;strokeWidth=1;fontFamily=Verdana;fontSize=12;exitX=0.5;exitY=1;exitDx=0;exitDy=0;entryX=0.5;entryY=0;entryDx=0;entryDy=0;" edge="1" parent="8VgfwEKivi2yDVHk0vp1-27" source="8VgfwEKivi2yDVHk0vp1-140" target="8VgfwEKivi2yDVHk0vp1-141">
          <mxGeometry relative="1" as="geometry">
            <mxPoint x="190" y="90" as="sourcePoint" />
            <mxPoint x="190" y="280" as="targetPoint" />
          </mxGeometry>
        </mxCell>
        <mxCell id="8VgfwEKivi2yDVHk0vp1-163" value="Select Departure Time" style="rounded=1;whiteSpace=wrap;html=1;" vertex="1" parent="8VgfwEKivi2yDVHk0vp1-27">
          <mxGeometry x="120" y="730" width="120" height="60" as="geometry" />
        </mxCell>
        <mxCell id="8VgfwEKivi2yDVHk0vp1-167" style="edgeStyle=orthogonalEdgeStyle;rounded=0;orthogonalLoop=1;jettySize=auto;html=1;entryX=0;entryY=0.5;entryDx=0;entryDy=0;" edge="1" parent="8VgfwEKivi2yDVHk0vp1-27" source="8VgfwEKivi2yDVHk0vp1-166" target="8VgfwEKivi2yDVHk0vp1-163">
          <mxGeometry relative="1" as="geometry" />
        </mxCell>
        <mxCell id="8VgfwEKivi2yDVHk0vp1-166" value="Departure Times" style="rounded=0;whiteSpace=wrap;html=1;" vertex="1" parent="8VgfwEKivi2yDVHk0vp1-27">
          <mxGeometry x="-40" y="740" width="80" height="40" as="geometry" />
        </mxCell>
        <mxCell id="8VgfwEKivi2yDVHk0vp1-184" value="?????????????????" style="text;html=1;strokeColor=none;fillColor=none;align=center;verticalAlign=middle;whiteSpace=wrap;rounded=0;" vertex="1" parent="8VgfwEKivi2yDVHk0vp1-27">
          <mxGeometry x="170" y="530" width="60" height="30" as="geometry" />
        </mxCell>
        <mxCell id="8VgfwEKivi2yDVHk0vp1-147" style="edgeStyle=orthogonalEdgeStyle;rounded=0;html=1;labelBackgroundColor=none;startArrow=none;startFill=0;startSize=5;endArrow=classicThin;endFill=1;endSize=5;jettySize=auto;orthogonalLoop=1;strokeWidth=1;fontFamily=Verdana;fontSize=12;exitX=0.5;exitY=1;exitDx=0;exitDy=0;" edge="1" parent="8VgfwEKivi2yDVHk0vp1-1" source="8VgfwEKivi2yDVHk0vp1-141" target="8VgfwEKivi2yDVHk0vp1-142">
          <mxGeometry relative="1" as="geometry">
            <mxPoint x="840" y="300" as="sourcePoint" />
            <mxPoint x="840" y="350" as="targetPoint" />
          </mxGeometry>
        </mxCell>
        <mxCell id="8VgfwEKivi2yDVHk0vp1-165" style="edgeStyle=orthogonalEdgeStyle;rounded=0;orthogonalLoop=1;jettySize=auto;html=1;entryX=0;entryY=0.5;entryDx=0;entryDy=0;" edge="1" parent="8VgfwEKivi2yDVHk0vp1-1" source="8VgfwEKivi2yDVHk0vp1-159" target="8VgfwEKivi2yDVHk0vp1-166">
          <mxGeometry relative="1" as="geometry">
            <Array as="points">
              <mxPoint x="640" y="780" />
            </Array>
          </mxGeometry>
        </mxCell>
        <mxCell id="8VgfwEKivi2yDVHk0vp1-180" style="edgeStyle=orthogonalEdgeStyle;rounded=0;orthogonalLoop=1;jettySize=auto;html=1;entryX=1;entryY=0.5;entryDx=0;entryDy=0;" edge="1" parent="8VgfwEKivi2yDVHk0vp1-1" source="8VgfwEKivi2yDVHk0vp1-142" target="8VgfwEKivi2yDVHk0vp1-141">
          <mxGeometry relative="1" as="geometry">
            <mxPoint x="780" y="499.9999999999998" as="targetPoint" />
          </mxGeometry>
        </mxCell>
        <mxCell id="8VgfwEKivi2yDVHk0vp1-182" value="yes" style="edgeLabel;html=1;align=center;verticalAlign=middle;resizable=0;points=[];" vertex="1" connectable="0" parent="8VgfwEKivi2yDVHk0vp1-180">
          <mxGeometry x="-0.2462" y="1" relative="1" as="geometry">
            <mxPoint as="offset" />
          </mxGeometry>
        </mxCell>
        <mxCell id="8VgfwEKivi2yDVHk0vp1-181" style="edgeStyle=orthogonalEdgeStyle;rounded=0;orthogonalLoop=1;jettySize=auto;html=1;entryX=1;entryY=0.5;entryDx=0;entryDy=0;" edge="1" parent="8VgfwEKivi2yDVHk0vp1-1" source="8VgfwEKivi2yDVHk0vp1-174" target="8VgfwEKivi2yDVHk0vp1-141">
          <mxGeometry relative="1" as="geometry">
            <mxPoint x="800" y="629.9999999999998" as="targetPoint" />
            <Array as="points">
              <mxPoint x="1030" y="630" />
              <mxPoint x="1030" y="370" />
            </Array>
          </mxGeometry>
        </mxCell>
        <mxCell id="8VgfwEKivi2yDVHk0vp1-183" value="yes" style="edgeLabel;html=1;align=center;verticalAlign=middle;resizable=0;points=[];" vertex="1" connectable="0" parent="8VgfwEKivi2yDVHk0vp1-181">
          <mxGeometry x="-0.1415" y="-6" relative="1" as="geometry">
            <mxPoint as="offset" />
          </mxGeometry>
        </mxCell>
        <mxCell id="8VgfwEKivi2yDVHk0vp1-189" style="edgeStyle=orthogonalEdgeStyle;rounded=0;orthogonalLoop=1;jettySize=auto;html=1;entryX=1;entryY=0.5;entryDx=0;entryDy=0;" edge="1" parent="8VgfwEKivi2yDVHk0vp1-1" source="8VgfwEKivi2yDVHk0vp1-187" target="8VgfwEKivi2yDVHk0vp1-188">
          <mxGeometry relative="1" as="geometry" />
        </mxCell>
        <mxCell id="8VgfwEKivi2yDVHk0vp1-191" style="edgeStyle=orthogonalEdgeStyle;rounded=0;orthogonalLoop=1;jettySize=auto;html=1;entryX=0.5;entryY=0;entryDx=0;entryDy=0;" edge="1" parent="8VgfwEKivi2yDVHk0vp1-1" source="8VgfwEKivi2yDVHk0vp1-163" target="8VgfwEKivi2yDVHk0vp1-186">
          <mxGeometry relative="1" as="geometry">
            <Array as="points">
              <mxPoint x="880" y="850" />
              <mxPoint x="495" y="850" />
            </Array>
          </mxGeometry>
        </mxCell>
      </root>
    </mxGraphModel>
  </diagram>
</mxfile>
